<mxfile host="app.diagrams.net" agent="Mozilla/5.0 (Windows NT 10.0; Win64; x64) AppleWebKit/537.36 (KHTML, like Gecko) Chrome/135.0.0.0 Safari/537.36" version="26.2.12">
  <diagram name="Página-1" id="9TJQbMhRa7MG7IqWD8t9">
    <mxGraphModel dx="1044" dy="527" grid="1" gridSize="10" guides="1" tooltips="1" connect="1" arrows="1" fold="1" page="1" pageScale="1" pageWidth="827" pageHeight="1169" math="0" shadow="0">
      <root>
        <mxCell id="0" />
        <mxCell id="1" parent="0" />
        <mxCell id="DxqVf7lcdv-91jwjmxCh-33" value="&lt;b&gt;&lt;font style=&quot;font-size: 20px;&quot;&gt;NETSales&lt;/font&gt;&lt;/b&gt;" style="rounded=1;whiteSpace=wrap;html=1;fillColor=#fff2cc;strokeColor=#d6b656;sketch=1;curveFitting=1;jiggle=2;verticalAlign=top;" vertex="1" parent="1">
          <mxGeometry x="20" y="170" width="840" height="300" as="geometry" />
        </mxCell>
        <mxCell id="DxqVf7lcdv-91jwjmxCh-29" style="edgeStyle=orthogonalEdgeStyle;rounded=0;orthogonalLoop=1;jettySize=auto;html=1;entryX=0.5;entryY=0;entryDx=0;entryDy=0;" edge="1" parent="1" source="DxqVf7lcdv-91jwjmxCh-1">
          <mxGeometry relative="1" as="geometry">
            <mxPoint x="414" y="150" as="targetPoint" />
            <Array as="points">
              <mxPoint x="414" y="60" />
            </Array>
          </mxGeometry>
        </mxCell>
        <mxCell id="DxqVf7lcdv-91jwjmxCh-1" value="Atendente" style="shape=umlActor;verticalLabelPosition=bottom;verticalAlign=top;html=1;outlineConnect=0;" vertex="1" parent="1">
          <mxGeometry x="100" y="20" width="30" height="60" as="geometry" />
        </mxCell>
        <mxCell id="DxqVf7lcdv-91jwjmxCh-30" style="edgeStyle=orthogonalEdgeStyle;rounded=0;orthogonalLoop=1;jettySize=auto;html=1;entryX=0.5;entryY=0;entryDx=0;entryDy=0;" edge="1" parent="1" target="DxqVf7lcdv-91jwjmxCh-11">
          <mxGeometry relative="1" as="geometry">
            <mxPoint x="414" y="210" as="sourcePoint" />
            <Array as="points">
              <mxPoint x="414" y="240" />
              <mxPoint x="90" y="240" />
            </Array>
          </mxGeometry>
        </mxCell>
        <mxCell id="DxqVf7lcdv-91jwjmxCh-31" value="Venda Base" style="edgeLabel;html=1;align=center;verticalAlign=middle;resizable=0;points=[];" vertex="1" connectable="0" parent="DxqVf7lcdv-91jwjmxCh-30">
          <mxGeometry x="-0.0703" y="3" relative="1" as="geometry">
            <mxPoint as="offset" />
          </mxGeometry>
        </mxCell>
        <mxCell id="DxqVf7lcdv-91jwjmxCh-13" style="edgeStyle=orthogonalEdgeStyle;rounded=0;orthogonalLoop=1;jettySize=auto;html=1;entryX=0;entryY=0.5;entryDx=0;entryDy=0;" edge="1" parent="1" source="DxqVf7lcdv-91jwjmxCh-10" target="DxqVf7lcdv-91jwjmxCh-12">
          <mxGeometry relative="1" as="geometry">
            <Array as="points">
              <mxPoint x="255" y="300" />
            </Array>
          </mxGeometry>
        </mxCell>
        <mxCell id="DxqVf7lcdv-91jwjmxCh-14" value="Não permite&amp;nbsp;&lt;div&gt;(restringe ofertas)&lt;/div&gt;" style="edgeLabel;html=1;align=center;verticalAlign=middle;resizable=0;points=[];" vertex="1" connectable="0" parent="DxqVf7lcdv-91jwjmxCh-13">
          <mxGeometry x="-0.1657" relative="1" as="geometry">
            <mxPoint x="20" as="offset" />
          </mxGeometry>
        </mxCell>
        <mxCell id="DxqVf7lcdv-91jwjmxCh-16" style="edgeStyle=orthogonalEdgeStyle;rounded=0;orthogonalLoop=1;jettySize=auto;html=1;entryX=0;entryY=0.5;entryDx=0;entryDy=0;" edge="1" parent="1" source="DxqVf7lcdv-91jwjmxCh-10" target="DxqVf7lcdv-91jwjmxCh-15">
          <mxGeometry relative="1" as="geometry">
            <Array as="points">
              <mxPoint x="255" y="420" />
            </Array>
          </mxGeometry>
        </mxCell>
        <mxCell id="DxqVf7lcdv-91jwjmxCh-18" value="Cancela&amp;nbsp;" style="edgeLabel;html=1;align=center;verticalAlign=middle;resizable=0;points=[];" vertex="1" connectable="0" parent="DxqVf7lcdv-91jwjmxCh-16">
          <mxGeometry x="0.1123" y="2" relative="1" as="geometry">
            <mxPoint as="offset" />
          </mxGeometry>
        </mxCell>
        <mxCell id="DxqVf7lcdv-91jwjmxCh-10" value="Matriz Não Convivência" style="rhombus;whiteSpace=wrap;html=1;" vertex="1" parent="1">
          <mxGeometry x="200" y="320" width="110" height="80" as="geometry" />
        </mxCell>
        <mxCell id="DxqVf7lcdv-91jwjmxCh-17" style="edgeStyle=orthogonalEdgeStyle;rounded=0;orthogonalLoop=1;jettySize=auto;html=1;" edge="1" parent="1" source="DxqVf7lcdv-91jwjmxCh-11" target="DxqVf7lcdv-91jwjmxCh-10">
          <mxGeometry relative="1" as="geometry" />
        </mxCell>
        <mxCell id="DxqVf7lcdv-91jwjmxCh-11" value="Posse Cliente" style="rounded=1;whiteSpace=wrap;html=1;" vertex="1" parent="1">
          <mxGeometry x="30" y="330" width="120" height="60" as="geometry" />
        </mxCell>
        <mxCell id="DxqVf7lcdv-91jwjmxCh-21" style="edgeStyle=orthogonalEdgeStyle;rounded=0;orthogonalLoop=1;jettySize=auto;html=1;entryX=0.5;entryY=0;entryDx=0;entryDy=0;" edge="1" parent="1" source="DxqVf7lcdv-91jwjmxCh-12" target="DxqVf7lcdv-91jwjmxCh-19">
          <mxGeometry relative="1" as="geometry" />
        </mxCell>
        <mxCell id="DxqVf7lcdv-91jwjmxCh-12" value="Não inclui na proposta" style="rounded=1;whiteSpace=wrap;html=1;" vertex="1" parent="1">
          <mxGeometry x="390" y="270" width="120" height="60" as="geometry" />
        </mxCell>
        <mxCell id="DxqVf7lcdv-91jwjmxCh-22" style="edgeStyle=orthogonalEdgeStyle;rounded=0;orthogonalLoop=1;jettySize=auto;html=1;entryX=0.5;entryY=1;entryDx=0;entryDy=0;" edge="1" parent="1" source="DxqVf7lcdv-91jwjmxCh-15" target="DxqVf7lcdv-91jwjmxCh-19">
          <mxGeometry relative="1" as="geometry" />
        </mxCell>
        <mxCell id="DxqVf7lcdv-91jwjmxCh-15" value="Cancela produto instalado e contrato novo" style="rounded=1;whiteSpace=wrap;html=1;" vertex="1" parent="1">
          <mxGeometry x="390" y="390" width="120" height="60" as="geometry" />
        </mxCell>
        <mxCell id="DxqVf7lcdv-91jwjmxCh-23" style="edgeStyle=orthogonalEdgeStyle;rounded=0;orthogonalLoop=1;jettySize=auto;html=1;entryX=0;entryY=0.5;entryDx=0;entryDy=0;" edge="1" parent="1" source="DxqVf7lcdv-91jwjmxCh-19" target="DxqVf7lcdv-91jwjmxCh-20">
          <mxGeometry relative="1" as="geometry" />
        </mxCell>
        <mxCell id="DxqVf7lcdv-91jwjmxCh-19" value="Cria Proposta/Contrato" style="rounded=1;whiteSpace=wrap;html=1;" vertex="1" parent="1">
          <mxGeometry x="530" y="330" width="120" height="60" as="geometry" />
        </mxCell>
        <mxCell id="DxqVf7lcdv-91jwjmxCh-20" value="Cria Solics" style="rounded=1;whiteSpace=wrap;html=1;" vertex="1" parent="1">
          <mxGeometry x="690" y="330" width="120" height="60" as="geometry" />
        </mxCell>
        <mxCell id="DxqVf7lcdv-91jwjmxCh-24" value="NETSMS" style="shape=cylinder3;whiteSpace=wrap;html=1;boundedLbl=1;backgroundOutline=1;size=15;verticalAlign=top;" vertex="1" parent="1">
          <mxGeometry x="340" y="520" width="250" height="140" as="geometry" />
        </mxCell>
        <mxCell id="DxqVf7lcdv-91jwjmxCh-26" style="edgeStyle=orthogonalEdgeStyle;rounded=0;orthogonalLoop=1;jettySize=auto;html=1;entryX=0;entryY=0.5;entryDx=0;entryDy=0;entryPerimeter=0;startArrow=classic;startFill=1;dashed=1;" edge="1" parent="1" source="DxqVf7lcdv-91jwjmxCh-11" target="DxqVf7lcdv-91jwjmxCh-24">
          <mxGeometry relative="1" as="geometry">
            <Array as="points">
              <mxPoint x="90" y="590" />
            </Array>
          </mxGeometry>
        </mxCell>
        <mxCell id="DxqVf7lcdv-91jwjmxCh-27" style="edgeStyle=orthogonalEdgeStyle;rounded=0;orthogonalLoop=1;jettySize=auto;html=1;entryX=1;entryY=0.5;entryDx=0;entryDy=0;entryPerimeter=0;dashed=1;" edge="1" parent="1" source="DxqVf7lcdv-91jwjmxCh-19" target="DxqVf7lcdv-91jwjmxCh-24">
          <mxGeometry relative="1" as="geometry">
            <Array as="points">
              <mxPoint x="610" y="590" />
            </Array>
          </mxGeometry>
        </mxCell>
        <mxCell id="DxqVf7lcdv-91jwjmxCh-28" style="edgeStyle=orthogonalEdgeStyle;rounded=0;orthogonalLoop=1;jettySize=auto;html=1;entryX=1;entryY=0.5;entryDx=0;entryDy=0;entryPerimeter=0;dashed=1;" edge="1" parent="1" source="DxqVf7lcdv-91jwjmxCh-20" target="DxqVf7lcdv-91jwjmxCh-24">
          <mxGeometry relative="1" as="geometry">
            <Array as="points">
              <mxPoint x="750" y="590" />
            </Array>
          </mxGeometry>
        </mxCell>
      </root>
    </mxGraphModel>
  </diagram>
</mxfile>
